<?xml version="1.0" standalone="no"?>
<!DOCTYPE svg PUBLIC "-//W3C//DTD SVG 20010904//EN"
 "http://www.w3.org/TR/2001/REC-SVG-20010904/DTD/svg10.dtd">
<svg version="1.0" xmlns="http://www.w3.org/2000/svg"
 width="700.000000pt" height="700.000000pt" viewBox="0 0 700.000000 700.000000"
 preserveAspectRatio="xMidYMid meet">
<metadata>
Created by potrace 1.14, written by Peter Selinger 2001-2017
</metadata>
<g transform="translate(0.000000,700.000000) scale(0.100000,-0.100000)"
fill="#000000" stroke="none">
<path d="M760 6984 c-142 -38 -256 -149 -300 -292 -20 -63 -20 -105 -20 -3091
0 -2981 0 -3029 20 -3105 31 -121 82 -209 176 -303 64 -64 99 -90 166 -122
159 -77 -85 -71 2963 -69 l2737 3 29 33 c40 45 40 99 0 144 -28 31 -33 33
-110 36 l-81 4 0 432 0 433 58 16 c40 11 69 27 94 53 75 74 69 -183 66 2814
l-3 2695 -23 58 c-45 109 -139 203 -252 249 l-55 23 -2705 2 c-2358 2 -2712 0
-2760 -13z m5360 -6329 l0 -435 -2544 0 c-2464 0 -2546 1 -2605 19 -125 39
-218 120 -274 239 -56 120 -48 283 20 399 51 88 145 163 243 194 52 17 195 18
2608 18 l2552 1 0 -435z"/>
</g>
</svg>
